<svg xmlns="http://www.w3.org/2000/svg" id="_ëîé_1" width="1440.1" height="960.21" viewBox="-.06 -.12 1440.1 960.21"><defs/><rect width="1440.04" height="960.09" x="-.01" style="fill:#fff2cc"/><path d="m972.87.04s33.81,189.25-.72,304c-37.57,124.86-88.42,173.11-153.91,188.31-65.49,15.2-98.46-14.18-98.46-14.18,0,0,41.16,56.87,119.51,49.85,78.36-7.02,181.24-60.24,253.52-235.6C1165.1,117.05,1164.55,42.88,1203.37.04h-230.5Z" style="fill:#f19db6"/><path d="m615.74-.02s165.01,129.12,192.11,235.18,9.77,167.53-14.91,194.86c-24.69,27.33-38.79,51.58-73.18,48.05,0,0,9.34,6.68,33.89,4.47,24.55-2.22,89.35-26.03,118.93-99.13,29.59-73.1,35.68-186.23-7.83-278.48C821.24,12.68,816.11-.02,816.11-.02h-200.38Z" style="fill:#f19db6"/><path d="m0,202.14s62.57,25.79,128.42,31.21c65.85,5.42,226.98-32.54,325.36-27.11,98.38,5.42,224.12,56.04,269.59,142.54,32.74,62.28,4.96,123.57-3.65,129.28,0,0,38.19-10.49,51.75-77.84s-28.19-168.83-104.73-223.22c-76.54-54.4-190.39-108.8-270.09-123.34C316.95,39.1,263.82-.12,263.82-.12L-.06.04,0,202.14Z" style="fill:#f19db6"/><path d="m1440,484.26s-38.68-12.86-246.02,94.03c-207.33,106.89-336.34,80.17-411.9,35.94-75.56-44.23-62.33-136.16-62.33-136.16,0,0,1.95,46.76,83.77,87.78,86.41,43.32,255.8-16.44,328.8-116.97,73-100.52,142.48-185.18,204.94-242.09,53.85-49.07,102.7-53.37,102.7-53.37l.03,330.83Z" style="fill:#f19db6"/><path d="m1440.04,960.02l-.02-201.03s-98.57-66.78-345.62-14.33c-247.05,52.45-367.12-113.17-383.68-158.72-16.56-45.54,9.03-107.87,9.03-107.87,0,0-26.53,16.13-40.71,55.39-14.18,39.26-24.46,139.42,79.47,231.9,103.93,92.48,259.84,133.88,307.4,145.33,47.56,11.45,115.73,49.26,115.73,49.26l258.38.07Z" style="fill:#f19db6"/><path d="m836.22,960.07s-146.41-90.77-192.21-225.54c-45.8-134.76-6.19-232.83,75.74-256.46,0,0-84.55-6.9-128.59,63.57-44.04,70.46-55.02,162.9-22.43,276.98,32.59,114.08,61.15,141.31,61.15,141.31l206.33.14Z" style="fill:#f19db6"/><path d="m465.13,960.07s-26.06-147.85-9.7-248.76,70.89-209.03,153.63-239.08c65.84-23.92,110.69,5.83,110.69,5.83,0,0-26.94-44.89-96.11-51.23s-207.99,49.28-268.94,211.82c-60.95,162.54-94.41,292.84-126.92,321.28l237.35.12Z" style="fill:#f19db6"/><path d="m-.02,478.54l.04,321.64s100.03-29.74,156.8-108.14,173.02-251.43,319.01-297.38c145.99-45.96,225.59,15.41,243.92,83.4,0,0,27.11-144.31-170.92-171.27-188.09-25.61-264.5,63.49-345.96,101.82C126.03,444.78,50.43,489.52-.02,478.54Z" style="fill:#f19db6"/></svg>